<svg width="21" height="20" viewBox="0 0 21 20" fill="none" xmlns="http://www.w3.org/2000/svg">
<path fill-rule="evenodd" clip-rule="evenodd" d="M1.83349 8.38066C1.78527 8.22666 1.78279 8.06198 1.82636 7.9066C1.86979 7.75138 1.9573 7.61209 2.07829 7.50559C2.19928 7.3991 2.34855 7.32998 2.50803 7.3066L7.35553 6.5991L9.80386 1.71077C9.88086 1.58162 9.99008 1.47468 10.1208 1.40042C10.2516 1.32615 10.3993 1.28711 10.5497 1.28711C10.7001 1.28711 10.8478 1.32615 10.9786 1.40042C11.1093 1.47468 11.2185 1.58162 11.2955 1.71077L13.7355 6.5966L18.583 7.3041C18.7427 7.32738 18.8921 7.3965 19.0133 7.50307C19.1344 7.60965 19.222 7.74909 19.2654 7.90448C19.3088 8.05987 19.3062 8.22452 19.2578 8.37844C19.2095 8.53237 19.1175 8.66895 18.993 8.7716L14.9889 12.0741L16.2514 17.7324C16.2883 17.8973 16.2742 18.0695 16.2109 18.2262C16.1477 18.3829 16.0383 18.5167 15.8973 18.6098C15.7608 18.6999 15.6009 18.7478 15.4375 18.7477L15.438 18.7499L15.435 18.7477C15.4305 18.7477 15.4259 18.7476 15.4214 18.7475C15.2524 18.7441 15.0885 18.6895 14.9514 18.5908L10.5455 15.4241L6.1397 18.5933C6.00255 18.692 5.83863 18.7466 5.6697 18.75C5.50076 18.7534 5.33478 18.7054 5.19377 18.6123C5.05276 18.5192 4.94338 18.3854 4.88015 18.2287C4.81691 18.072 4.8028 17.8998 4.8397 17.7349L6.1022 12.0766L2.09803 8.7741C1.97362 8.67133 1.88172 8.53465 1.83349 8.38066Z" fill="#F2A03D"/>
</svg>
