<svg width="100" height="100" viewBox="0 0 100 100" fill="none" xmlns="http://www.w3.org/2000/svg">
<path d="M33.3333 45.8334V37.5C33.3333 36.395 33.7723 35.3351 34.5537 34.5537C35.3351 33.7723 36.3949 33.3334 37.5 33.3334C38.605 33.3334 39.6649 33.7723 40.4463 34.5537C41.2277 35.3351 41.6666 36.395 41.6666 37.5V45.8334C41.6666 46.9384 41.2277 47.9982 40.4463 48.7796C39.6649 49.561 38.605 50 37.5 50C36.3949 50 35.3351 49.561 34.5537 48.7796C33.7723 47.9982 33.3333 46.9384 33.3333 45.8334ZM62.5 50C63.605 50 64.6649 49.561 65.4463 48.7796C66.2277 47.9982 66.6666 46.9384 66.6666 45.8334V37.5C66.6666 36.395 66.2277 35.3351 65.4463 34.5537C64.6649 33.7723 63.605 33.3334 62.5 33.3334C61.3949 33.3334 60.3351 33.7723 59.5537 34.5537C58.7723 35.3351 58.3333 36.395 58.3333 37.5V45.8334C58.3333 46.9384 58.7723 47.9982 59.5537 48.7796C60.3351 49.561 61.3949 50 62.5 50ZM63.4375 59.8667C61.8894 61.9766 59.8661 63.6923 57.5316 64.8749C55.1971 66.0575 52.6169 66.6738 50 66.6738C47.383 66.6738 44.8028 66.0575 42.4683 64.8749C40.1338 63.6923 38.1106 61.9766 36.5625 59.8667C35.8641 59.0103 34.8541 58.4664 33.7546 58.3546C32.6552 58.2429 31.5564 58.5725 30.7 59.2709C29.8435 59.9693 29.2996 60.9793 29.1879 62.0787C29.0762 63.1781 29.4057 64.2769 30.1041 65.1334C32.4366 68.1989 35.4458 70.6839 38.897 72.3947C42.3482 74.1054 46.148 74.9955 50 74.9955C53.8519 74.9955 57.6518 74.1054 61.103 72.3947C64.5542 70.6839 67.5634 68.1989 69.8958 65.1334C70.5942 64.2769 70.9238 63.1781 70.8121 62.0787C70.7003 60.9793 70.1564 59.9693 69.3 59.2709C68.4436 58.5725 67.3448 58.2429 66.2453 58.3546C65.1459 58.4664 64.1359 59.0103 63.4375 59.8667ZM95.8333 50C95.8333 59.065 93.1452 67.9264 88.109 75.4637C83.0728 83.0009 75.9146 88.8755 67.5396 92.3445C59.1647 95.8135 49.9491 96.7212 41.0583 94.9527C32.1675 93.1842 24.0008 88.819 17.5909 82.4091C11.181 75.9992 6.81581 67.8325 5.04732 58.9417C3.27883 50.0509 4.18649 40.8353 7.6555 32.4604C11.1245 24.0854 16.9991 16.9272 24.5363 11.891C32.0736 6.85476 40.935 4.16669 50 4.16669C62.1513 4.18102 73.8009 9.01448 82.3932 17.6068C90.9855 26.1991 95.819 37.8487 95.8333 50ZM87.5 50C87.5 42.5832 85.3006 35.333 81.1801 29.1661C77.0595 22.9993 71.2028 18.1928 64.3506 15.3545C57.4984 12.5163 49.9584 11.7736 42.6841 13.2206C35.4098 14.6675 28.7279 18.239 23.4835 23.4835C18.239 28.728 14.6675 35.4098 13.2205 42.6841C11.7736 49.9584 12.5162 57.4984 15.3545 64.3507C18.1928 71.2029 22.9993 77.0596 29.1661 81.1801C35.3329 85.3007 42.5832 87.5 50 87.5C59.9422 87.489 69.4741 83.5346 76.5043 76.5043C83.5345 69.4741 87.489 59.9423 87.5 50Z" fill="#242A2F"/>
</svg>
