<svg width="100" height="100" viewBox="0 0 100 100" fill="none" xmlns="http://www.w3.org/2000/svg">
<path d="M71.2209 5.38742L24.5542 52.0541C24.0949 52.5105 23.7495 53.0686 23.5459 53.6833L16.8792 73.6833C16.6706 74.3096 16.6138 74.9766 16.7135 75.6293C16.8132 76.2819 17.0666 76.9015 17.4528 77.437C17.8389 77.9725 18.3468 78.4086 18.9346 78.7093C19.5224 79.01 20.1732 79.1667 20.8334 79.1666C21.2807 79.1659 21.7252 79.0942 22.15 78.9541L42.15 72.2874C42.7637 72.0816 43.3213 71.7365 43.7792 71.2791L90.4459 24.6124C91.227 23.8311 91.6658 22.7714 91.6658 21.6666C91.6658 20.5617 91.227 19.5021 90.4459 18.7208L77.1125 5.38742C76.3312 4.60629 75.2716 4.16748 74.1667 4.16748C73.0619 4.16748 72.0022 4.60629 71.2209 5.38742ZM38.5834 64.6916L27.4209 68.4124L31.1417 57.2499L74.1667 14.2249L81.6084 21.6666L38.5834 64.6916ZM12.5 87.4999H83.3334C84.4384 87.4999 85.4983 87.9389 86.2797 88.7203C87.0611 89.5017 87.5 90.5615 87.5 91.6666C87.5 92.7717 87.0611 93.8315 86.2797 94.6129C85.4983 95.3943 84.4384 95.8333 83.3334 95.8333H12.5C11.395 95.8333 10.3352 95.3943 9.55376 94.6129C8.77236 93.8315 8.33337 92.7717 8.33337 91.6666C8.33337 90.5615 8.77236 89.5017 9.55376 88.7203C10.3352 87.9389 11.395 87.4999 12.5 87.4999Z" fill="#242A2F"/>
</svg>
