<svg width="100" height="100" viewBox="0 0 100 100" fill="none" xmlns="http://www.w3.org/2000/svg">
<path d="M83.3333 12.5C84.4384 12.5 85.4982 12.061 86.2796 11.2796C87.061 10.4982 87.5 9.43842 87.5 8.33335C87.5 7.22828 87.061 6.16848 86.2796 5.38708C85.4982 4.60567 84.4384 4.16669 83.3333 4.16669H16.6667C15.5616 4.16669 14.5018 4.60567 13.7204 5.38708C12.939 6.16848 12.5 7.22828 12.5 8.33335C12.5 9.43842 12.939 10.4982 13.7204 11.2796C14.5018 12.061 15.5616 12.5 16.6667 12.5H21.0375C21.6458 20.15 24.1333 36.4583 34.3458 45.8333C23.575 56.2958 21.3833 78.0583 20.9458 87.5H16.6667C15.5616 87.5 14.5018 87.939 13.7204 88.7204C12.939 89.5018 12.5 90.5616 12.5 91.6667C12.5 92.7717 12.939 93.8316 13.7204 94.613C14.5018 95.3944 15.5616 95.8333 16.6667 95.8333H83.3333C84.4384 95.8333 85.4982 95.3944 86.2796 94.613C87.061 93.8316 87.5 92.7717 87.5 91.6667C87.5 90.5616 87.061 89.5018 86.2796 88.7204C85.4982 87.939 84.4384 87.5 83.3333 87.5H79.0542C78.6167 78.0667 76.425 56.3042 65.6542 45.8333C75.8667 36.45 78.3542 20.1417 78.9625 12.5H83.3333ZM56.5833 42.1917C55.9214 42.5593 55.3721 43.1003 54.9946 43.7567C54.617 44.413 54.4255 45.1598 54.4404 45.9168C54.4554 46.6738 54.6764 47.4125 55.0797 48.0533C55.4829 48.6942 56.0532 49.2131 56.7292 49.5542C66.8833 54.6708 70.0625 75.85 70.7083 87.5H29.2917C29.9208 75.8333 33.1167 54.6708 43.2708 49.5542C43.9468 49.2131 44.5171 48.6942 44.9203 48.0533C45.3236 47.4125 45.5446 46.6738 45.5595 45.9168C45.5745 45.1598 45.383 44.413 45.0054 43.7567C44.6279 43.1003 44.0786 42.5593 43.4167 42.1917C32.8375 36.3209 30.1125 20.1834 29.4083 12.5H70.5917C69.8875 20.1834 67.1625 36.3209 56.5833 42.1917ZM50 54.1667C50 54.1667 62.5 64.1667 62.5 69.1667V83.3333H37.5V69.1667C37.5 64.1667 50 54.1667 50 54.1667Z" fill="#242A2F"/>
</svg>
