<svg width="100" height="100" viewBox="0 0 100 100" fill="none" xmlns="http://www.w3.org/2000/svg">
<path d="M79.1666 33.3334H61.35L74.45 10.4167C74.816 9.78268 75.0085 9.0634 75.0082 8.3313C75.0078 7.5992 74.8146 6.88012 74.4479 6.24646C74.0812 5.6128 73.5541 5.08694 72.9195 4.72183C72.2849 4.35672 71.5654 4.16525 70.8333 4.1667H41.6666C40.8923 4.16633 40.1332 4.38174 39.4745 4.78873C38.8158 5.19573 38.2836 5.77823 37.9374 6.47086L17.1041 48.1375C16.7866 48.7729 16.6368 49.479 16.6689 50.1885C16.7011 50.8981 16.9141 51.5877 17.2877 52.1918C17.6614 52.7959 18.1833 53.2945 18.8038 53.6401C19.4244 53.9858 20.123 54.167 20.8333 54.1667H40.2333L29.3416 90.4709C29.0652 91.3886 29.1137 92.3736 29.4789 93.2598C29.8441 94.146 30.5037 94.8792 31.3464 95.3358C32.1891 95.7924 33.1635 95.9445 34.1053 95.7665C35.0471 95.5884 35.8987 95.0911 36.5166 94.3584L82.35 40.1917C82.8634 39.5849 83.1927 38.844 83.2988 38.0562C83.4049 37.2685 83.2834 36.4668 82.9488 35.7458C82.6141 35.0248 82.0802 34.4146 81.4101 33.9871C80.7399 33.5597 79.9615 33.3328 79.1666 33.3334ZM43.0708 73.7042L49.825 51.2042C50.0129 50.5816 50.0525 49.9236 49.9406 49.2829C49.8286 48.6422 49.5682 48.0366 49.1803 47.5146C48.7923 46.9926 48.2875 46.5686 47.7063 46.2767C47.1251 45.9848 46.4837 45.8329 45.8333 45.8334H27.575L44.2416 12.5H63.65L50.55 35.4167C50.1839 36.0507 49.9914 36.77 49.9917 37.5021C49.9921 38.2342 50.1853 38.9533 50.552 39.5869C50.9187 40.2206 51.4458 40.7464 52.0804 41.1116C52.715 41.4767 53.4345 41.6681 54.1666 41.6667H70.1833L43.0708 73.7042Z" fill="#242A2F"/>
</svg>
