<svg width="100" height="100" viewBox="0 0 100 100" fill="none" xmlns="http://www.w3.org/2000/svg">
<path d="M15.0623 26.0666L48.3956 39.9541C48.9032 40.1687 49.4487 40.2792 49.9998 40.2792C50.5509 40.2792 51.0964 40.1687 51.604 39.9541L84.9373 26.0666C85.6952 25.7495 86.3424 25.2154 86.7976 24.5315C87.2528 23.8476 87.4957 23.0444 87.4957 22.2229C87.4957 21.4013 87.2528 20.5981 86.7976 19.9142C86.3424 19.2303 85.6952 18.6962 84.9373 18.3791L51.604 4.48747C50.5768 4.06245 49.4229 4.06245 48.3956 4.48747L15.0623 18.3791C14.3044 18.6962 13.6572 19.2303 13.202 19.9142C12.7468 20.5981 12.504 21.4013 12.504 22.2229C12.504 23.0444 12.7468 23.8476 13.202 24.5315C13.6572 25.2154 14.3044 25.7495 15.0623 26.0666ZM49.9998 12.8458L72.4998 22.2208L49.9998 31.5958L27.4998 22.2208L49.9998 12.8458ZM84.9373 44.5833L51.604 58.4708C51.0957 58.6828 50.5505 58.792 49.9998 58.792C49.4491 58.792 48.9039 58.6828 48.3956 58.4708L15.0623 44.5833C14.5573 44.3726 14.0987 44.0646 13.7127 43.6767C13.3267 43.2888 13.0209 42.8286 12.8127 42.3226C12.6046 41.8165 12.4981 41.2744 12.4995 40.7271C12.5008 40.1799 12.61 39.6383 12.8206 39.1333C13.0313 38.6283 13.3394 38.1697 13.7273 37.7837C14.1152 37.3977 14.5753 37.0919 15.0814 36.8837C15.5875 36.6756 16.1296 36.5691 16.6768 36.5705C17.224 36.5718 17.7656 36.681 18.2706 36.8916L49.9998 50.1166L81.729 36.8958C82.749 36.4703 83.8962 36.4675 84.9182 36.8879C85.9403 37.3083 86.7535 38.1175 87.179 39.1375C87.6044 40.1574 87.6073 41.3047 87.1869 42.3267C86.7665 43.3488 85.9573 44.162 84.9373 44.5875V44.5833ZM84.9373 63.1L51.604 76.9916C51.0957 77.2037 50.5505 77.3128 49.9998 77.3128C49.4491 77.3128 48.9039 77.2037 48.3956 76.9916L15.0623 63.1C14.5573 62.8893 14.0987 62.5812 13.7127 62.1933C13.3267 61.8054 13.0209 61.3453 12.8127 60.8392C12.6046 60.3332 12.4981 59.791 12.4995 59.2438C12.5008 58.6966 12.61 58.155 12.8206 57.65C13.0313 57.1449 13.3394 56.6863 13.7273 56.3003C14.1152 55.9144 14.5753 55.6086 15.0814 55.4004C15.5875 55.1922 16.1296 55.0858 16.6768 55.0872C17.224 55.0885 17.7656 55.1976 18.2706 55.4083L49.9998 68.6333L81.729 55.4166C82.749 54.9912 83.8962 54.9883 84.9182 55.4087C85.9403 55.8291 86.7535 56.6383 87.179 57.6583C87.6044 58.6783 87.6073 59.8255 87.1869 60.8476C86.7665 61.8696 85.9573 62.6828 84.9373 63.1083V63.1ZM87.179 76.1708C87.6032 77.1903 87.6054 78.3365 87.1851 79.3576C86.7648 80.3787 85.9563 81.1912 84.9373 81.6166L51.604 95.5083C51.0957 95.7203 50.5505 95.8295 49.9998 95.8295C49.4491 95.8295 48.9039 95.7203 48.3956 95.5083L15.0623 81.6166C14.5426 81.4165 14.0683 81.1142 13.6675 80.7276C13.2666 80.341 12.9473 79.878 12.7284 79.3659C12.5096 78.8538 12.3956 78.3031 12.3932 77.7462C12.3909 77.1893 12.5001 76.6375 12.7146 76.1236C12.9291 75.6097 13.2445 75.144 13.642 74.754C14.0396 74.364 14.5112 74.0576 15.0292 73.8531C15.5472 73.6485 16.1009 73.5498 16.6576 73.5629C17.2144 73.5759 17.7628 73.7005 18.2706 73.9291L49.9998 87.1541L81.729 73.9333C82.234 73.7226 82.7756 73.6134 83.3228 73.6121C83.8701 73.6107 84.4122 73.7171 84.9183 73.9253C85.4244 74.1334 85.8845 74.4393 86.2724 74.8253C86.6603 75.2113 86.9684 75.6699 87.179 76.175V76.1708Z" fill="#242A2F"/>
</svg>
