<svg width="100" height="100" viewBox="0 0 100 100" fill="none" xmlns="http://www.w3.org/2000/svg">
<path d="M8.33341 45.8333H33.3334C34.4385 45.8333 35.4983 45.3943 36.2797 44.6129C37.0611 43.8315 37.5001 42.7717 37.5001 41.6667V16.6667C37.5001 15.5616 37.0611 14.5018 36.2797 13.7204C35.4983 12.939 34.4385 12.5 33.3334 12.5H8.33341C7.22835 12.5 6.16854 12.939 5.38714 13.7204C4.60573 14.5018 4.16675 15.5616 4.16675 16.6667V41.6667C4.16675 42.7717 4.60573 43.8315 5.38714 44.6129C6.16854 45.3943 7.22835 45.8333 8.33341 45.8333ZM12.5001 20.8333H29.1667V37.5H12.5001V20.8333ZM33.3334 87.5C34.4385 87.5 35.4983 87.061 36.2797 86.2796C37.0611 85.4982 37.5001 84.4384 37.5001 83.3333V58.3333C37.5001 57.2283 37.0611 56.1685 36.2797 55.3871C35.4983 54.6057 34.4385 54.1667 33.3334 54.1667H8.33341C7.22835 54.1667 6.16854 54.6057 5.38714 55.3871C4.60573 56.1685 4.16675 57.2283 4.16675 58.3333V83.3333C4.16675 84.4384 4.60573 85.4982 5.38714 86.2796C6.16854 87.061 7.22835 87.5 8.33341 87.5H33.3334ZM12.5001 62.5H29.1667V79.1667H12.5001V62.5ZM95.8334 29.1667C95.8334 30.2717 95.3944 31.3315 94.613 32.1129C93.8316 32.8943 92.7718 33.3333 91.6667 33.3333H50.0001C48.895 33.3333 47.8352 32.8943 47.0538 32.1129C46.2724 31.3315 45.8334 30.2717 45.8334 29.1667C45.8334 28.0616 46.2724 27.0018 47.0538 26.2204C47.8352 25.439 48.895 25 50.0001 25H91.6667C92.7718 25 93.8316 25.439 94.613 26.2204C95.3944 27.0018 95.8334 28.0616 95.8334 29.1667ZM95.8334 70.8333C95.8334 71.9384 95.3944 72.9982 94.613 73.7796C93.8316 74.561 92.7718 75 91.6667 75H50.0001C48.895 75 47.8352 74.561 47.0538 73.7796C46.2724 72.9982 45.8334 71.9384 45.8334 70.8333C45.8334 69.7283 46.2724 68.6685 47.0538 67.8871C47.8352 67.1056 48.895 66.6667 50.0001 66.6667H91.6667C92.7718 66.6667 93.8316 67.1056 94.613 67.8871C95.3944 68.6685 95.8334 69.7283 95.8334 70.8333Z" fill="#242A2F"/>
</svg>
