<svg width="19" height="35" viewBox="0 0 19 35" fill="none" xmlns="http://www.w3.org/2000/svg">
<path d="M16.1211 1.34167C16.7069 0.755882 17.6566 0.755882 18.2424 1.34167C18.8282 1.92745 18.8282 2.8772 18.2424 3.46299L16.1211 1.34167ZM18.2424 31.7051C18.8282 32.2909 18.8282 33.2406 18.2424 33.8264C17.6566 34.4122 16.7069 34.4122 16.1211 33.8264L18.2424 31.7051ZM18.2424 3.46299L3.76781 17.9376L1.64649 15.8163L16.1211 1.34167L18.2424 3.46299ZM3.76782 17.2305L18.2424 31.7051L16.1211 33.8264L1.6465 19.3518L3.76782 17.2305ZM3.76781 17.9376C3.96308 17.7423 3.96308 17.4257 3.76782 17.2305L1.6465 19.3518C0.670187 18.3755 0.670181 16.7926 1.64649 15.8163L3.76781 17.9376Z" fill="#242A2F"/>
</svg>
