<svg width="19" height="35" viewBox="0 0 19 35" fill="none" xmlns="http://www.w3.org/2000/svg">
<path d="M2.87902 1.34165C2.29323 0.755867 1.34349 0.755867 0.757699 1.34165C0.171913 1.92744 0.171913 2.87719 0.757699 3.46297L2.87902 1.34165ZM0.757699 31.7051C0.171913 32.2909 0.171913 33.2406 0.757699 33.8264C1.34349 34.4122 2.29323 34.4122 2.87902 33.8264L0.757699 31.7051ZM0.757699 3.46297L15.2323 17.9376L17.3536 15.8163L2.87902 1.34165L0.757699 3.46297ZM15.2323 17.2305L0.757699 31.7051L2.87902 33.8264L17.3536 19.3518L15.2323 17.2305ZM15.2323 17.9376C15.037 17.7423 15.037 17.4257 15.2323 17.2305L17.3536 19.3518C18.3299 18.3755 18.3299 16.7926 17.3536 15.8163L15.2323 17.9376Z" fill="#242A2F"/>
</svg>
