<svg width="24" height="24" viewBox="0 0 24 24" fill="none" xmlns="http://www.w3.org/2000/svg">
<path d="M12.2221 5.97716C13.6436 5.95331 15.0172 6.49084 16.0451 7.47316L18.9131 4.60516C17.1031 2.90494 14.7052 1.97137 12.2221 2.00016C10.368 1.99939 8.55017 2.51431 6.97192 3.48736C5.39366 4.46042 4.11714 5.85325 3.28506 7.51016L6.62606 10.1002C7.01029 8.91391 7.75691 7.87805 8.76078 7.13842C9.76466 6.39878 10.9752 5.99264 12.2221 5.97716Z" fill="white"/>
<path d="M3.28506 7.51016C2.58597 8.90365 2.22192 10.4411 2.22192 12.0002C2.22192 13.5592 2.58597 15.0967 3.28506 16.4902L6.62606 13.9002C6.20796 12.668 6.20796 11.3323 6.62606 10.1002L3.28506 7.51016Z" fill="white"/>
<path d="M15.6081 17.0682C14.8349 17.5644 13.9586 17.8776 13.0461 17.9837C12.1335 18.0899 11.2088 17.9862 10.3424 17.6806C9.47594 17.375 8.69077 16.8756 8.04672 16.2204C7.40268 15.5653 6.91677 14.7717 6.62606 13.9002L3.28506 16.4902C4.11699 18.1468 5.3942 19.5394 6.97207 20.5124C8.54993 21.4855 10.3673 22.0006 12.2211 22.0002C14.6553 22.0661 17.0228 21.1993 18.8391 19.5772L15.6081 17.0682Z" fill="white"/>
<path d="M21.6401 10.1822H12.2221V14.0502H17.6041C17.4927 14.662 17.2583 15.2449 16.9153 15.7637C16.5722 16.2824 16.1275 16.7262 15.6081 17.0682L18.8401 19.5782C19.8243 18.6303 20.5983 17.4862 21.112 16.22C21.6257 14.9538 21.8676 13.5938 21.8221 12.2282C21.8221 11.5412 21.7621 10.8572 21.6401 10.1822Z" fill="white"/>
</svg>
