<svg width="24" height="24" viewBox="0 0 24 24" fill="none" xmlns="http://www.w3.org/2000/svg">
<path d="M12 6.865C10.9844 6.865 9.99157 7.16616 9.14712 7.7304C8.30268 8.29464 7.64451 9.09662 7.25586 10.0349C6.8672 10.9732 6.76551 12.0057 6.96364 13.0018C7.16178 13.9979 7.65084 14.9129 8.36898 15.631C9.08713 16.3491 10.0021 16.8382 10.9982 17.0363C11.9943 17.2345 13.0268 17.1328 13.9651 16.7441C14.9034 16.3555 15.7053 15.6973 16.2696 14.8529C16.8338 14.0084 17.135 13.0156 17.135 12C17.135 10.6381 16.594 9.33201 15.631 8.36901C14.668 7.40601 13.3619 6.865 12 6.865ZM12 15.334C11.3406 15.334 10.696 15.1385 10.1477 14.7721C9.59943 14.4058 9.1721 13.8851 8.91976 13.2759C8.66742 12.6667 8.6014 11.9963 8.73004 11.3496C8.85868 10.7028 9.17621 10.1088 9.64248 9.64251C10.1088 9.17624 10.7028 8.8587 11.3495 8.73006C11.9963 8.60142 12.6666 8.66744 13.2758 8.91979C13.8851 9.17213 14.4058 9.59946 14.7721 10.1477C15.1384 10.696 15.334 11.3406 15.334 12C15.3341 12.4379 15.248 12.8715 15.0805 13.276C14.913 13.6806 14.6674 14.0482 14.3578 14.3578C14.0481 14.6674 13.6806 14.913 13.276 15.0805C12.8714 15.248 12.4378 15.3341 12 15.334Z" fill="white"/>
<path d="M21.94 7.877C21.9234 7.04752 21.7662 6.22687 21.475 5.45C21.2236 4.78273 20.8302 4.1781 20.322 3.678C19.8229 3.1694 19.2189 2.7759 18.552 2.525C17.7748 2.23387 16.9538 2.07696 16.124 2.061C15.058 2.012 14.717 2 12.001 2C9.28498 2 8.94398 2.011 7.87798 2.06C7.04816 2.07648 6.22716 2.23371 5.44998 2.525C4.78324 2.77622 4.17923 3.16967 3.67998 3.678C3.17021 4.17725 2.77597 4.78208 2.52498 5.45C2.23414 6.22693 2.07725 7.04758 2.06098 7.877C2.01098 8.943 2.00098 9.284 2.00098 12C2.00098 14.716 2.01098 15.057 2.06098 16.123C2.07727 16.9524 2.23416 17.7731 2.52498 18.55C2.77574 19.2178 3.16962 19.8226 3.67898 20.322C4.17877 20.8301 4.78305 21.2236 5.44998 21.475C6.22725 21.7659 7.04823 21.9227 7.87798 21.939C8.94398 21.988 9.28498 22 12 22C14.715 22 15.057 21.989 16.123 21.94C16.9525 21.9234 17.7731 21.7662 18.55 21.475C19.2144 21.2181 19.8178 20.8252 20.3215 20.3215C20.8252 19.8178 21.2181 19.2144 21.475 18.55C21.7665 17.7732 21.9237 16.9525 21.94 16.123C21.988 15.056 22 14.716 22 12C22 9.284 21.988 8.943 21.94 7.877ZM20.14 16.041C20.1326 16.6751 20.0166 17.3031 19.797 17.898C19.6306 18.3293 19.3758 18.7211 19.0489 19.048C18.722 19.3749 18.3303 19.6297 17.899 19.796C17.3043 20.0165 16.6761 20.1328 16.042 20.14C14.987 20.188 14.671 20.198 12 20.198C9.32898 20.198 9.01398 20.188 7.95998 20.14C7.32582 20.1327 6.69765 20.0164 6.10298 19.796C5.66871 19.6354 5.27581 19.3799 4.95298 19.048C4.62049 18.7257 4.36484 18.3326 4.20498 17.898C3.9845 17.3034 3.86813 16.6752 3.86098 16.041C3.81298 14.987 3.80298 14.671 3.80298 12.001C3.80298 9.331 3.81298 9.014 3.86098 7.959C3.86896 7.32492 3.98531 6.69687 4.20498 6.102C4.36551 5.66772 4.62107 5.27481 4.95298 4.952C5.27525 4.61944 5.66832 4.36377 6.10298 4.204C6.69764 3.98357 7.32582 3.8672 7.95998 3.86C9.01398 3.81 9.33098 3.8 12 3.8C14.669 3.8 14.987 3.811 16.042 3.859C16.6761 3.86701 17.3041 3.98335 17.899 4.203C18.3303 4.36928 18.7221 4.62407 19.049 4.95097C19.3759 5.27787 19.6307 5.66963 19.797 6.101C20.0174 6.69566 20.1338 7.32384 20.141 7.958C20.189 9.013 20.199 9.328 20.199 11.999C20.199 14.67 20.189 14.985 20.141 16.04L20.14 16.041Z" fill="white"/>
</svg>
