<svg width="24" height="24" viewBox="0 0 24 24" fill="none" xmlns="http://www.w3.org/2000/svg">
<path d="M20.457 6.16268C20.467 6.34768 20.467 6.53268 20.467 6.70768C20.4645 7.84618 20.2985 8.97841 19.974 10.0697C19.2896 12.5849 17.7869 14.8004 15.7031 16.3665C13.6194 17.9325 11.0733 18.7598 8.467 18.7177C6.17307 18.7202 3.92729 18.0597 2 16.8157C2.33409 16.8568 2.6704 16.8772 3.007 16.8767C4.90546 16.8784 6.7492 16.2408 8.241 15.0667C7.36238 15.0502 6.51079 14.76 5.8049 14.2366C5.09901 13.7132 4.57399 12.9826 4.303 12.1467C4.56469 12.1915 4.82952 12.2156 5.095 12.2187C5.47371 12.2201 5.85073 12.1683 6.215 12.0647C5.31274 11.8858 4.49416 11.4156 3.88499 10.7264C3.27582 10.0372 2.90975 9.16708 2.843 8.24968C2.82609 8.14424 2.81939 8.03741 2.823 7.93068V7.87968C3.4089 8.20562 4.06479 8.38537 4.735 8.40368C4.1577 8.01926 3.68454 7.49791 3.35772 6.88616C3.0309 6.2744 2.8606 5.59126 2.862 4.89768C2.86134 4.15074 3.0565 3.41668 3.428 2.76868C4.48705 4.07375 5.80911 5.14112 7.30809 5.90129C8.80707 6.66146 10.4494 7.09739 12.128 7.18068C11.9162 6.2761 12.009 5.32692 12.3918 4.48043C12.7747 3.63394 13.4262 2.93748 14.2453 2.49914C15.0644 2.0608 16.0053 1.90509 16.922 2.05616C17.8387 2.20724 18.6799 2.65666 19.315 3.33468C20.2618 3.14793 21.1697 2.80023 21.999 2.30668C22.0346 3.02261 21.9152 3.73778 21.6489 4.40329C21.3825 5.06879 20.9757 5.66894 20.456 6.16268H20.457Z" fill="white"/>
</svg>
