<svg width="105" height="50" viewBox="0 0 105 50" fill="none" xmlns="http://www.w3.org/2000/svg">
<path d="M11.4873 46V38.4941C11.4873 38.3242 11.4873 38.1543 11.4873 37.9844C11.4932 37.8145 11.5225 37.085 11.5752 35.7959C11.1592 37.3721 10.8516 38.4707 10.6523 39.0918L8.41992 46H6.57422L4.3418 39.0918L3.40137 35.7959C3.47168 37.1553 3.50684 38.0547 3.50684 38.4941V46H1.2041V33.6162H4.67578L6.89062 40.542L7.08398 41.21L7.50586 42.8711L8.05957 40.8848L10.3359 33.6162H13.79V46H11.4873ZM18.4482 46.1758C17.5283 46.1758 16.8105 45.9268 16.2949 45.4287C15.7793 44.9248 15.5215 44.2188 15.5215 43.3105C15.5215 42.3262 15.8408 41.5762 16.4795 41.0605C17.124 40.5449 18.0557 40.2812 19.2744 40.2695L21.3223 40.2344V39.751C21.3223 39.1299 21.2139 38.6699 20.9971 38.3711C20.7803 38.0664 20.4258 37.9141 19.9336 37.9141C19.4766 37.9141 19.1396 38.0195 18.9229 38.2305C18.7119 38.4355 18.5801 38.7783 18.5273 39.2588L15.9521 39.1357C16.1104 38.21 16.5322 37.5098 17.2178 37.0352C17.9092 36.5547 18.8496 36.3145 20.0391 36.3145C21.2402 36.3145 22.166 36.6104 22.8164 37.2021C23.4668 37.7939 23.792 38.6348 23.792 39.7246V43.1875C23.792 43.7207 23.8506 44.0898 23.9678 44.2949C24.0908 44.4941 24.293 44.5938 24.5742 44.5938C24.7617 44.5938 24.9434 44.5762 25.1191 44.541V45.877C24.9727 45.9121 24.8408 45.9443 24.7236 45.9736C24.6064 46.0029 24.4893 46.0264 24.3721 46.0439C24.2549 46.0615 24.1289 46.0762 23.9941 46.0879C23.8652 46.0996 23.7129 46.1055 23.5371 46.1055C22.916 46.1055 22.4561 45.9531 22.1572 45.6484C21.8643 45.3438 21.6885 44.8955 21.6299 44.3037H21.5771C20.8857 45.5518 19.8428 46.1758 18.4482 46.1758ZM21.3223 41.5967L20.0566 41.6143C19.4824 41.6377 19.0752 41.7021 18.835 41.8076C18.5947 41.9072 18.4102 42.0625 18.2812 42.2734C18.1582 42.4844 18.0967 42.7656 18.0967 43.1172C18.0967 43.5684 18.1992 43.9053 18.4043 44.1279C18.6152 44.3447 18.8936 44.4531 19.2393 44.4531C19.626 44.4531 19.9775 44.3477 20.2939 44.1367C20.6162 43.9258 20.8682 43.6357 21.0498 43.2666C21.2314 42.8916 21.3223 42.4961 21.3223 42.0801V41.5967ZM34.2861 43.2227C34.2861 44.1426 33.9082 44.8662 33.1523 45.3936C32.4023 45.915 31.3623 46.1758 30.0322 46.1758C28.7256 46.1758 27.7236 45.9707 27.0264 45.5605C26.335 45.1445 25.875 44.5 25.6465 43.627L27.8174 43.3018C27.9404 43.7529 28.1514 44.0723 28.4502 44.2598C28.7549 44.4473 29.2822 44.541 30.0322 44.541C30.7236 44.541 31.2275 44.4531 31.5439 44.2773C31.8604 44.1016 32.0186 43.8262 32.0186 43.4512C32.0186 43.1465 31.8896 42.9062 31.6318 42.7305C31.3799 42.5488 30.9492 42.3965 30.3398 42.2734C28.9453 41.998 28.0049 41.7432 27.5186 41.5088C27.0322 41.2686 26.6602 40.9609 26.4023 40.5859C26.1504 40.2051 26.0244 39.7393 26.0244 39.1885C26.0244 38.2803 26.373 37.5742 27.0703 37.0703C27.7734 36.5605 28.7666 36.3057 30.0498 36.3057C31.1807 36.3057 32.0889 36.5254 32.7744 36.9648C33.4658 37.4043 33.8965 38.04 34.0664 38.8721L31.8779 39.1006C31.8076 38.7139 31.6348 38.4268 31.3594 38.2393C31.084 38.0459 30.6475 37.9492 30.0498 37.9492C29.4639 37.9492 29.0244 38.0254 28.7314 38.1777C28.4385 38.3242 28.292 38.5732 28.292 38.9248C28.292 39.2002 28.4033 39.4199 28.626 39.584C28.8545 39.7422 29.2354 39.874 29.7686 39.9795C30.5127 40.1318 31.1719 40.29 31.7461 40.4541C32.3262 40.6123 32.7891 40.8027 33.1348 41.0254C33.4863 41.248 33.7646 41.5352 33.9697 41.8867C34.1807 42.2324 34.2861 42.6777 34.2861 43.2227ZM38.7246 46.1582C37.998 46.1582 37.4385 45.9619 37.0459 45.5693C36.6533 45.1709 36.457 44.5703 36.457 43.7676V38.1602H35.2529V36.4902H36.5801L37.3535 34.2578H38.9004V36.4902H40.7021V38.1602H38.9004V43.0996C38.9004 43.5625 38.9883 43.9053 39.1641 44.1279C39.3398 44.3447 39.6123 44.4531 39.9814 44.4531C40.1748 44.4531 40.4502 44.4121 40.8076 44.3301V45.8594C40.1982 46.0586 39.5039 46.1582 38.7246 46.1582ZM46.1777 46.1758C44.748 46.1758 43.6494 45.7539 42.8818 44.9102C42.1143 44.0605 41.7305 42.8242 41.7305 41.2012C41.7305 39.6309 42.1201 38.4238 42.8994 37.5801C43.6787 36.7363 44.7832 36.3145 46.2129 36.3145C47.5781 36.3145 48.6211 36.7686 49.3418 37.6768C50.0625 38.5791 50.4229 39.9033 50.4229 41.6494V41.7197H44.3232C44.3232 42.6455 44.4932 43.3457 44.833 43.8203C45.1787 44.2891 45.668 44.5234 46.3008 44.5234C47.1738 44.5234 47.7246 44.1455 47.9531 43.3896L50.2822 43.5918C49.6084 45.3145 48.2402 46.1758 46.1777 46.1758ZM46.1777 37.8701C45.5977 37.8701 45.1494 38.0723 44.833 38.4766C44.5225 38.8809 44.3584 39.4463 44.3408 40.1729H48.0322C47.9854 39.4053 47.8008 38.8311 47.4785 38.4502C47.1562 38.0635 46.7227 37.8701 46.1777 37.8701ZM52.3037 46V38.7227C52.3037 38.2012 52.2949 37.7676 52.2773 37.4219C52.2656 37.0703 52.251 36.7598 52.2334 36.4902H54.5889C54.6064 36.5957 54.6299 36.918 54.6592 37.457C54.6885 37.9902 54.7031 38.3447 54.7031 38.5205H54.7383C54.9785 37.8525 55.1924 37.3838 55.3799 37.1143C55.5674 36.8389 55.79 36.6367 56.0479 36.5078C56.3057 36.373 56.6279 36.3057 57.0146 36.3057C57.3311 36.3057 57.5859 36.3496 57.7793 36.4375V38.5029C57.3809 38.415 57.0293 38.3711 56.7246 38.3711C56.1094 38.3711 55.6289 38.6201 55.2832 39.1182C54.9434 39.6162 54.7734 40.3545 54.7734 41.333V46H52.3037ZM68.3174 41.2012C68.3174 42.7891 67.998 44.0166 67.3594 44.8838C66.7266 45.7451 65.8301 46.1758 64.6699 46.1758C64.002 46.1758 63.4189 46.0322 62.9209 45.7451C62.4287 45.4521 62.0508 45.0332 61.7871 44.4883H61.7344C61.7695 44.6641 61.7871 45.1973 61.7871 46.0879V49.7354H59.3174V38.6787C59.3174 37.7822 59.2939 37.0527 59.2471 36.4902H61.6465C61.6758 36.5957 61.6992 36.8037 61.7168 37.1143C61.7402 37.4248 61.752 37.7324 61.752 38.0371H61.7871C62.3438 36.8711 63.3574 36.2881 64.8281 36.2881C65.9355 36.2881 66.7939 36.7158 67.4033 37.5713C68.0127 38.4209 68.3174 39.6309 68.3174 41.2012ZM65.7422 41.2012C65.7422 39.0684 65.0889 38.002 63.7822 38.002C63.126 38.002 62.6221 38.2891 62.2705 38.8633C61.9248 39.4375 61.752 40.2402 61.752 41.2715C61.752 42.2969 61.9248 43.0908 62.2705 43.6533C62.6221 44.21 63.1201 44.4883 63.7646 44.4883C65.083 44.4883 65.7422 43.3926 65.7422 41.2012ZM70.3213 34.7764V32.957H72.791V34.7764H70.3213ZM70.3213 46V36.4902H72.791V46H70.3213ZM79.2246 46.1758C77.7949 46.1758 76.6963 45.7539 75.9287 44.9102C75.1611 44.0605 74.7773 42.8242 74.7773 41.2012C74.7773 39.6309 75.167 38.4238 75.9463 37.5801C76.7256 36.7363 77.8301 36.3145 79.2598 36.3145C80.625 36.3145 81.668 36.7686 82.3887 37.6768C83.1094 38.5791 83.4697 39.9033 83.4697 41.6494V41.7197H77.3701C77.3701 42.6455 77.54 43.3457 77.8799 43.8203C78.2256 44.2891 78.7148 44.5234 79.3477 44.5234C80.2207 44.5234 80.7715 44.1455 81 43.3896L83.3291 43.5918C82.6553 45.3145 81.2871 46.1758 79.2246 46.1758ZM79.2246 37.8701C78.6445 37.8701 78.1963 38.0723 77.8799 38.4766C77.5693 38.8809 77.4053 39.4463 77.3877 40.1729H81.0791C81.0322 39.4053 80.8477 38.8311 80.5254 38.4502C80.2031 38.0635 79.7695 37.8701 79.2246 37.8701ZM89.3145 46.1758C87.873 46.1758 86.7598 45.748 85.9746 44.8926C85.1895 44.0312 84.7969 42.833 84.7969 41.2979C84.7969 39.7275 85.1924 38.5059 85.9834 37.6328C86.7744 36.7539 87.8965 36.3145 89.3496 36.3145C90.4688 36.3145 91.3945 36.5957 92.127 37.1582C92.8594 37.7207 93.3193 38.4971 93.5068 39.4873L91.0195 39.6104C90.9492 39.124 90.7734 38.7373 90.4922 38.4502C90.2109 38.1572 89.8125 38.0107 89.2969 38.0107C88.0254 38.0107 87.3896 39.0742 87.3896 41.2012C87.3896 43.3926 88.0371 44.4883 89.332 44.4883C89.8008 44.4883 90.1934 44.3418 90.5098 44.0488C90.8262 43.75 91.0225 43.3076 91.0986 42.7217L93.5771 42.8359C93.4893 43.4863 93.2549 44.0664 92.874 44.5762C92.499 45.0859 92.0039 45.4814 91.3887 45.7627C90.7734 46.0381 90.082 46.1758 89.3145 46.1758ZM99.2637 46.1758C97.834 46.1758 96.7354 45.7539 95.9678 44.9102C95.2002 44.0605 94.8164 42.8242 94.8164 41.2012C94.8164 39.6309 95.2061 38.4238 95.9854 37.5801C96.7646 36.7363 97.8691 36.3145 99.2988 36.3145C100.664 36.3145 101.707 36.7686 102.428 37.6768C103.148 38.5791 103.509 39.9033 103.509 41.6494V41.7197H97.4092C97.4092 42.6455 97.5791 43.3457 97.9189 43.8203C98.2646 44.2891 98.7539 44.5234 99.3867 44.5234C100.26 44.5234 100.811 44.1455 101.039 43.3896L103.368 43.5918C102.694 45.3145 101.326 46.1758 99.2637 46.1758ZM99.2637 37.8701C98.6836 37.8701 98.2354 38.0723 97.9189 38.4766C97.6084 38.8809 97.4443 39.4463 97.4268 40.1729H101.118C101.071 39.4053 100.887 38.8311 100.564 38.4502C100.242 38.0635 99.8086 37.8701 99.2637 37.8701Z" fill="#34A1FF"/>
<path d="M41.8822 0L30 26.9981H45.7928L49.8538 17.5224L41.8822 0Z" fill="#34A1FF"/>
<path d="M57.8253 0L69.7075 26.9981H53.9148L49.8538 17.5224L57.8253 0Z" fill="#34A1FF"/>
</svg>
