<svg width="165" height="31" viewBox="0 0 165 31" fill="none" xmlns="http://www.w3.org/2000/svg">
<path d="M56.4019 26V17.2432C56.4019 17.0449 56.4019 16.8467 56.4019 16.6484C56.4087 16.4502 56.4429 15.5991 56.5044 14.0952C56.019 15.9341 55.6602 17.2158 55.4277 17.9404L52.8232 26H50.6699L48.0654 17.9404L46.9683 14.0952C47.0503 15.6812 47.0913 16.7305 47.0913 17.2432V26H44.4048V11.5522H48.4551L51.0391 19.6323L51.2646 20.4116L51.7568 22.3496L52.4028 20.0322L55.0586 11.5522H59.0884V26H56.4019ZM64.5229 26.2051C63.4497 26.2051 62.6123 25.9146 62.0107 25.3335C61.4092 24.7456 61.1084 23.9219 61.1084 22.8623C61.1084 21.7139 61.481 20.8389 62.2261 20.2373C62.978 19.6357 64.0649 19.3281 65.4868 19.3145L67.876 19.2734V18.7095C67.876 17.9849 67.7495 17.4482 67.4966 17.0996C67.2437 16.7441 66.8301 16.5664 66.2559 16.5664C65.7227 16.5664 65.3296 16.6895 65.0767 16.9355C64.8306 17.1748 64.6768 17.5747 64.6152 18.1353L61.6108 17.9917C61.7954 16.9116 62.2876 16.0947 63.0874 15.541C63.894 14.9805 64.9912 14.7002 66.3789 14.7002C67.7803 14.7002 68.8604 15.0454 69.6191 15.7358C70.3779 16.4263 70.7573 17.4072 70.7573 18.6787V22.7188C70.7573 23.3408 70.8257 23.7715 70.9624 24.0107C71.106 24.2432 71.3418 24.3594 71.6699 24.3594C71.8887 24.3594 72.1006 24.3389 72.3057 24.2979V25.8564C72.1348 25.8975 71.981 25.9351 71.8442 25.9692C71.7075 26.0034 71.5708 26.0308 71.4341 26.0513C71.2974 26.0718 71.1504 26.0889 70.9932 26.1025C70.8428 26.1162 70.665 26.123 70.46 26.123C69.7354 26.123 69.1987 25.9453 68.8501 25.5898C68.5083 25.2344 68.3032 24.7114 68.2349 24.021H68.1733C67.3667 25.4771 66.1499 26.2051 64.5229 26.2051ZM67.876 20.8628L66.3994 20.8833C65.7295 20.9106 65.2544 20.9858 64.9741 21.1089C64.6938 21.2251 64.4785 21.4062 64.3281 21.6523C64.1846 21.8984 64.1128 22.2266 64.1128 22.6367C64.1128 23.1631 64.2324 23.5562 64.4717 23.8159C64.7178 24.0688 65.0425 24.1953 65.4458 24.1953C65.897 24.1953 66.3071 24.0723 66.6763 23.8262C67.0522 23.5801 67.3462 23.2417 67.5581 22.811C67.77 22.3735 67.876 21.9121 67.876 21.4268V20.8628ZM83.0005 22.7598C83.0005 23.833 82.5596 24.6772 81.6777 25.2925C80.8027 25.9009 79.5894 26.2051 78.0376 26.2051C76.5132 26.2051 75.3442 25.9658 74.5308 25.4873C73.7241 25.002 73.1875 24.25 72.9209 23.2314L75.4536 22.8521C75.5972 23.3784 75.8433 23.751 76.1919 23.9697C76.5474 24.1885 77.1626 24.2979 78.0376 24.2979C78.8442 24.2979 79.4321 24.1953 79.8013 23.9902C80.1704 23.7852 80.355 23.4639 80.355 23.0264C80.355 22.6709 80.2046 22.3906 79.9038 22.1855C79.6099 21.9736 79.1074 21.7959 78.3965 21.6523C76.7695 21.3311 75.6724 21.0337 75.105 20.7603C74.5376 20.48 74.1035 20.1211 73.8027 19.6836C73.5088 19.2393 73.3618 18.6958 73.3618 18.0532C73.3618 16.9937 73.7686 16.1699 74.582 15.582C75.4023 14.9873 76.561 14.6899 78.0581 14.6899C79.3774 14.6899 80.437 14.9463 81.2368 15.459C82.0435 15.9717 82.5459 16.7134 82.7441 17.6841L80.1909 17.9507C80.1089 17.4995 79.9072 17.1646 79.5859 16.9458C79.2646 16.7202 78.7554 16.6074 78.0581 16.6074C77.3745 16.6074 76.8618 16.6963 76.52 16.874C76.1782 17.0449 76.0073 17.3354 76.0073 17.7456C76.0073 18.0669 76.1372 18.3232 76.397 18.5146C76.6636 18.6992 77.1079 18.853 77.73 18.9761C78.5981 19.1538 79.3672 19.3384 80.0371 19.5298C80.7139 19.7144 81.2539 19.9365 81.6572 20.1963C82.0674 20.4561 82.3921 20.791 82.6313 21.2012C82.8774 21.6045 83.0005 22.124 83.0005 22.7598ZM88.1787 26.1846C87.3311 26.1846 86.6782 25.9556 86.2202 25.4976C85.7622 25.0327 85.5332 24.332 85.5332 23.3955V16.8535H84.1284V14.9053H85.6768L86.5791 12.3008H88.3838V14.9053H90.4858V16.8535H88.3838V22.6162C88.3838 23.1562 88.4863 23.5562 88.6914 23.8159C88.8965 24.0688 89.2144 24.1953 89.645 24.1953C89.8706 24.1953 90.1919 24.1475 90.6089 24.0518V25.8359C89.8979 26.0684 89.0879 26.1846 88.1787 26.1846ZM96.874 26.2051C95.2061 26.2051 93.9243 25.7129 93.0288 24.7285C92.1333 23.7373 91.6855 22.2949 91.6855 20.4014C91.6855 18.5693 92.1401 17.1611 93.0493 16.1768C93.9585 15.1924 95.2471 14.7002 96.915 14.7002C98.5078 14.7002 99.7246 15.23 100.565 16.2896C101.406 17.3423 101.827 18.8872 101.827 20.9243V21.0063H94.7104C94.7104 22.0864 94.9087 22.9033 95.3052 23.457C95.7085 24.0039 96.2793 24.2773 97.0176 24.2773C98.0361 24.2773 98.6787 23.8364 98.9453 22.9546L101.663 23.1904C100.876 25.2002 99.2803 26.2051 96.874 26.2051ZM96.874 16.5151C96.1973 16.5151 95.6743 16.751 95.3052 17.2227C94.9429 17.6943 94.7515 18.354 94.731 19.2017H99.0376C98.9829 18.3062 98.7676 17.6362 98.3916 17.1919C98.0156 16.7407 97.5098 16.5151 96.874 16.5151ZM104.021 26V17.5098C104.021 16.9014 104.011 16.3955 103.99 15.9922C103.977 15.582 103.959 15.2197 103.939 14.9053H106.687C106.708 15.0283 106.735 15.4043 106.769 16.0332C106.803 16.6553 106.82 17.0688 106.82 17.2739H106.861C107.142 16.4946 107.391 15.9478 107.61 15.6333C107.829 15.312 108.088 15.0762 108.389 14.9258C108.69 14.7686 109.066 14.6899 109.517 14.6899C109.886 14.6899 110.184 14.7412 110.409 14.8438V17.2534C109.944 17.1509 109.534 17.0996 109.179 17.0996C108.461 17.0996 107.9 17.3901 107.497 17.9712C107.101 18.5522 106.902 19.4136 106.902 20.5552V26H104.021ZM122.704 20.4014C122.704 22.2539 122.331 23.686 121.586 24.6978C120.848 25.7026 119.802 26.2051 118.448 26.2051C117.669 26.2051 116.989 26.0376 116.408 25.7026C115.833 25.3608 115.393 24.8721 115.085 24.2363H115.023C115.064 24.4414 115.085 25.0635 115.085 26.1025V30.3579H112.204V17.4585C112.204 16.4126 112.176 15.5615 112.122 14.9053H114.921C114.955 15.0283 114.982 15.271 115.003 15.6333C115.03 15.9956 115.044 16.3545 115.044 16.71H115.085C115.734 15.3496 116.917 14.6694 118.633 14.6694C119.925 14.6694 120.926 15.1685 121.637 16.1665C122.348 17.1577 122.704 18.5693 122.704 20.4014ZM119.699 20.4014C119.699 17.9131 118.937 16.6689 117.413 16.6689C116.647 16.6689 116.059 17.0039 115.649 17.6738C115.246 18.3438 115.044 19.2803 115.044 20.4834C115.044 21.6797 115.246 22.606 115.649 23.2622C116.059 23.9116 116.64 24.2363 117.392 24.2363C118.93 24.2363 119.699 22.958 119.699 20.4014ZM125.042 12.9058V10.7832H127.923V12.9058H125.042ZM125.042 26V14.9053H127.923V26H125.042ZM135.429 26.2051C133.761 26.2051 132.479 25.7129 131.583 24.7285C130.688 23.7373 130.24 22.2949 130.24 20.4014C130.24 18.5693 130.695 17.1611 131.604 16.1768C132.513 15.1924 133.802 14.7002 135.47 14.7002C137.062 14.7002 138.279 15.23 139.12 16.2896C139.961 17.3423 140.381 18.8872 140.381 20.9243V21.0063H133.265C133.265 22.0864 133.463 22.9033 133.86 23.457C134.263 24.0039 134.834 24.2773 135.572 24.2773C136.591 24.2773 137.233 23.8364 137.5 22.9546L140.217 23.1904C139.431 25.2002 137.835 26.2051 135.429 26.2051ZM135.429 16.5151C134.752 16.5151 134.229 16.751 133.86 17.2227C133.498 17.6943 133.306 18.354 133.286 19.2017H137.592C137.538 18.3062 137.322 17.6362 136.946 17.1919C136.57 16.7407 136.064 16.5151 135.429 16.5151ZM147.2 26.2051C145.519 26.2051 144.22 25.7061 143.304 24.708C142.388 23.7031 141.93 22.3052 141.93 20.5142C141.93 18.6821 142.391 17.2568 143.314 16.2383C144.237 15.2129 145.546 14.7002 147.241 14.7002C148.547 14.7002 149.627 15.0283 150.481 15.6846C151.336 16.3408 151.873 17.2466 152.091 18.4019L149.189 18.5454C149.107 17.978 148.902 17.5269 148.574 17.1919C148.246 16.8501 147.781 16.6792 147.18 16.6792C145.696 16.6792 144.955 17.9199 144.955 20.4014C144.955 22.958 145.71 24.2363 147.221 24.2363C147.768 24.2363 148.226 24.0654 148.595 23.7236C148.964 23.375 149.193 22.8589 149.282 22.1753L152.173 22.3086C152.071 23.0674 151.797 23.7441 151.353 24.3389C150.916 24.9336 150.338 25.395 149.62 25.7231C148.902 26.0444 148.096 26.2051 147.2 26.2051ZM158.808 26.2051C157.14 26.2051 155.858 25.7129 154.962 24.7285C154.067 23.7373 153.619 22.2949 153.619 20.4014C153.619 18.5693 154.074 17.1611 154.983 16.1768C155.892 15.1924 157.181 14.7002 158.849 14.7002C160.441 14.7002 161.658 15.23 162.499 16.2896C163.34 17.3423 163.76 18.8872 163.76 20.9243V21.0063H156.644C156.644 22.0864 156.842 22.9033 157.239 23.457C157.642 24.0039 158.213 24.2773 158.951 24.2773C159.97 24.2773 160.612 23.8364 160.879 22.9546L163.596 23.1904C162.81 25.2002 161.214 26.2051 158.808 26.2051ZM158.808 16.5151C158.131 16.5151 157.608 16.751 157.239 17.2227C156.876 17.6943 156.685 18.354 156.665 19.2017H160.971C160.917 18.3062 160.701 17.6362 160.325 17.1919C159.949 16.7407 159.443 16.5151 158.808 16.5151Z" fill="white"/>
<path d="M11.8822 0L0 26.9981H15.7928L19.8538 17.5224L11.8822 0Z" fill="white"/>
<path d="M27.8253 0L39.7075 26.9981H23.9148L19.8538 17.5224L27.8253 0Z" fill="white"/>
</svg>
